<svg width="44" height="46" viewBox="0 0 44 46" fill="none" xmlns="http://www.w3.org/2000/svg">
<g filter="url(#filter0_d)">
<path fill-rule="evenodd" clip-rule="evenodd" d="M25.5637 19.188C25.51 18.3798 25.3734 17.5929 25.1615 16.8384C26.0092 17.072 26.8178 17.4023 27.5759 17.8119C26.9792 18.3656 26.304 18.8324 25.5637 19.188ZM18.4323 19.188C17.6924 18.8289 17.0132 18.3656 16.4205 17.8119C17.1786 17.4023 17.9872 17.0756 18.8348 16.8384C18.6225 17.5929 18.4864 18.3798 18.4323 19.188ZM10.2303 27.3935C10.4245 24.5301 11.6463 21.9437 13.5322 20.0002C14.3728 20.8695 15.3463 21.6094 16.4205 22.188C14.8037 23.686 13.7942 25.8272 13.7942 28.2057C12.5188 28.2057 11.3081 27.9144 10.2303 27.3935ZM33.363 31.3671C33.6436 30.3608 33.7944 29.2976 33.7944 28.2022C33.7944 27.9287 33.7837 27.6595 33.7656 27.3936C33.5718 24.5301 32.35 21.9437 30.4641 20.0002C29.6231 20.8696 28.6496 21.6095 27.5758 22.188C29.1922 23.686 30.2021 25.8273 30.2021 28.2057C30.2021 29.4847 29.9108 30.6915 29.3899 31.7696C28.064 34.5143 25.2546 36.4077 21.9997 36.4077C18.7448 36.4077 15.9319 34.5143 14.6063 31.7696C14.3403 31.7874 14.0673 31.798 13.7942 31.798C12.6983 31.798 11.6387 31.6473 10.6328 31.3671C12.0195 36.343 16.5893 40 21.9997 40C27.4065 40 31.9767 36.343 33.363 31.3671Z" fill="#10CFA1"/>
</g>
<g filter="url(#filter1_d)">
<path d="M33.7657 12.61C33.572 15.4734 32.3502 18.0598 30.4643 20.0002C29.6233 20.8696 28.6498 21.6095 27.576 22.1881C26.8179 22.5973 26.0093 22.928 25.1616 23.1616C24.4071 23.3735 23.6202 23.5101 22.812 23.5637C22.5425 23.5819 22.2729 23.5925 21.9999 23.5925C21.7268 23.5925 21.4541 23.5819 21.1881 23.5637C20.3763 23.5101 19.5895 23.3735 18.8349 23.1616C17.9873 22.9244 17.1787 22.5973 16.4206 22.1881C15.3464 21.6095 14.3729 20.8696 13.5323 20.0002C11.6464 18.0598 10.4246 15.4734 10.2304 12.61C10.2127 12.3405 10.202 12.0713 10.202 11.7982C10.202 10.7024 10.3528 9.6424 10.633 8.63649C12.0161 3.66101 16.5895 2.86102e-05 21.9999 2.86102e-05C27.4067 2.86102e-05 31.9804 3.66101 33.3632 8.63649C32.3577 8.3563 31.2977 8.20556 30.2022 8.20556C29.9287 8.20556 29.6592 8.2162 29.3901 8.23396C28.0641 5.48576 25.2548 3.59233 21.9999 3.59233C18.745 3.59233 15.932 5.48576 14.6065 8.23396C14.0856 9.31209 13.7943 10.5189 13.7943 11.7982C13.7943 14.1727 14.8038 16.314 16.4206 17.812C17.0133 18.3657 17.6925 18.829 18.4324 19.1881C19.5105 19.709 20.7209 20.0002 21.9999 20.0002C23.2753 20.0002 24.486 19.709 25.5638 19.1881C26.3041 18.8325 26.9793 18.3657 27.576 17.812C29.1924 16.314 30.2022 14.1727 30.2022 11.7982C31.4808 11.7982 32.688 12.0891 33.7657 12.61Z" fill="#10CFA1"/>
</g>
<g filter="url(#filter2_d)">
<path fill-rule="evenodd" clip-rule="evenodd" d="M22.812 23.5636C23.1715 24.304 23.6383 24.9831 24.188 25.5794C24.5973 24.8213 24.928 24.0092 25.1616 23.1615C24.4071 23.3734 23.6202 23.51 22.812 23.5636ZM14.6065 8.23389C14.0855 9.31201 13.7943 10.5188 13.7943 11.7982C16.1692 11.7982 18.3069 12.8076 19.8085 14.4205C20.387 13.3463 21.1305 12.3692 21.9998 11.5287C20.0563 9.64983 17.473 8.42804 14.6065 8.23389ZM25.5637 19.188C24.4859 19.7089 23.2752 20.0002 21.9998 20.0002C21.9998 18.7212 22.291 17.514 22.8119 16.4363C23.1714 15.6959 23.6383 15.0207 24.188 14.424C24.5972 15.1825 24.9279 15.9907 25.1615 16.8384C25.3734 17.5929 25.51 18.3798 25.5637 19.188ZM14.6064 31.7696C17.473 31.5754 20.0563 30.354 21.9998 28.4713C21.1304 27.6307 20.387 26.6536 19.8084 25.5794C18.3104 27.1962 16.1692 28.2057 13.7943 28.2057C12.5189 28.2057 11.3081 27.9144 10.2304 27.3935C7.48574 26.0644 5.59271 23.255 5.59271 20.0001C5.59271 16.7452 7.48574 13.9355 10.2304 12.6099C10.2126 12.3404 10.202 12.0712 10.202 11.7982C10.202 10.7023 10.3527 9.64232 10.6329 8.63641C5.66058 10.0196 2 14.5894 2 20.0001C2 25.4105 5.66058 29.9839 10.6329 31.367C11.6388 31.6472 12.6984 31.798 13.7943 31.798C14.0674 31.798 14.3405 31.7873 14.6064 31.7696Z" fill="#00B3DA"/>
</g>
<g filter="url(#filter3_d)">
<path fill-rule="evenodd" clip-rule="evenodd" d="M33.3632 31.3671C38.339 29.984 42 25.4106 42 20.0002C42 14.5895 38.339 10.0197 33.3632 8.6365C32.3576 8.35631 31.2977 8.20557 30.2022 8.20557C29.9287 8.20557 29.6592 8.21621 29.39 8.23397C26.5266 8.42813 23.9398 9.64991 21.9998 11.5287C21.1305 12.3693 20.387 13.3464 19.8084 14.4206C19.3988 15.1826 19.0681 15.9908 18.8349 16.8385C18.6226 17.593 18.4864 18.3799 18.4324 19.1881C19.5105 19.709 20.7208 20.0002 21.9998 20.0002C21.9998 18.7212 22.2911 17.5141 22.812 16.4363C23.1715 15.696 23.6383 15.0208 24.188 14.4241C25.686 12.8077 27.8273 11.7983 30.2022 11.7983C31.4808 11.7983 32.6879 12.0891 33.7657 12.61C36.5107 13.9356 38.4037 16.7453 38.4037 20.0002C38.4037 23.2551 36.5107 26.0645 33.7657 27.3936C33.7838 27.6596 33.7945 27.9287 33.7945 28.2022C33.7945 29.2977 33.6437 30.3608 33.3632 31.3671ZM29.39 31.7697C29.9109 30.6915 30.2021 29.4848 30.2021 28.2058C27.8273 28.2058 25.686 27.1963 24.188 25.5795C23.6383 24.9832 23.1714 24.3041 22.8119 23.5637C22.5424 23.5819 22.2729 23.5925 21.9998 23.5925C21.7267 23.5925 21.454 23.5819 21.188 23.5637C20.3763 23.5101 19.5894 23.3735 18.8348 23.1616C19.0681 24.0093 19.3988 24.8214 19.8084 25.5795C20.3869 26.6537 21.1304 27.6308 21.9998 28.4714C23.9398 30.3541 26.5266 31.5755 29.39 31.7697Z" fill="#00B3DA"/>
</g>
<defs>
<filter id="filter0_d" x="8.23035" y="16.8384" width="27.564" height="29.1616" filterUnits="userSpaceOnUse" color-interpolation-filters="sRGB">
<feFlood flood-opacity="0" result="BackgroundImageFix"/>
<feColorMatrix in="SourceAlpha" type="matrix" values="0 0 0 0 0 0 0 0 0 0 0 0 0 0 0 0 0 0 127 0"/>
<feOffset dy="4"/>
<feGaussianBlur stdDeviation="1"/>
<feColorMatrix type="matrix" values="0 0 0 0 0 0 0 0 0 0 0 0 0 0 0 0 0 0 0.1 0"/>
<feBlend mode="normal" in2="BackgroundImageFix" result="effect1_dropShadow"/>
<feBlend mode="normal" in="SourceGraphic" in2="effect1_dropShadow" result="shape"/>
</filter>
<filter id="filter1_d" x="8.20203" y="0" width="27.5637" height="29.5925" filterUnits="userSpaceOnUse" color-interpolation-filters="sRGB">
<feFlood flood-opacity="0" result="BackgroundImageFix"/>
<feColorMatrix in="SourceAlpha" type="matrix" values="0 0 0 0 0 0 0 0 0 0 0 0 0 0 0 0 0 0 127 0"/>
<feOffset dy="4"/>
<feGaussianBlur stdDeviation="1"/>
<feColorMatrix type="matrix" values="0 0 0 0 0 0 0 0 0 0 0 0 0 0 0 0 0 0 0.1 0"/>
<feBlend mode="normal" in2="BackgroundImageFix" result="effect1_dropShadow"/>
<feBlend mode="normal" in="SourceGraphic" in2="effect1_dropShadow" result="shape"/>
</filter>
<filter id="filter2_d" x="0" y="8.23389" width="27.5637" height="29.5641" filterUnits="userSpaceOnUse" color-interpolation-filters="sRGB">
<feFlood flood-opacity="0" result="BackgroundImageFix"/>
<feColorMatrix in="SourceAlpha" type="matrix" values="0 0 0 0 0 0 0 0 0 0 0 0 0 0 0 0 0 0 127 0"/>
<feOffset dy="4"/>
<feGaussianBlur stdDeviation="1"/>
<feColorMatrix type="matrix" values="0 0 0 0 0 0 0 0 0 0 0 0 0 0 0 0 0 0 0.1 0"/>
<feBlend mode="normal" in2="BackgroundImageFix" result="effect1_dropShadow"/>
<feBlend mode="normal" in="SourceGraphic" in2="effect1_dropShadow" result="shape"/>
</filter>
<filter id="filter3_d" x="16.4324" y="8.20557" width="27.5676" height="29.5641" filterUnits="userSpaceOnUse" color-interpolation-filters="sRGB">
<feFlood flood-opacity="0" result="BackgroundImageFix"/>
<feColorMatrix in="SourceAlpha" type="matrix" values="0 0 0 0 0 0 0 0 0 0 0 0 0 0 0 0 0 0 127 0"/>
<feOffset dy="4"/>
<feGaussianBlur stdDeviation="1"/>
<feColorMatrix type="matrix" values="0 0 0 0 0 0 0 0 0 0 0 0 0 0 0 0 0 0 0.1 0"/>
<feBlend mode="normal" in2="BackgroundImageFix" result="effect1_dropShadow"/>
<feBlend mode="normal" in="SourceGraphic" in2="effect1_dropShadow" result="shape"/>
</filter>
</defs>
</svg>
