<svg width="470" height="352" viewBox="0 0 470 352" fill="none" xmlns="http://www.w3.org/2000/svg">
<path d="M324.652 103.17C292.252 72.8 254.292 64.97 244.262 63.36C251.022 45.13 261.462 18.03 264.062 14.02C264.902 13.91 266.612 13.73 269.132 13.73C276.502 13.73 292.282 15.26 315.102 25.53C347.862 40.27 356.832 57.04 358.602 61.13L324.652 103.17Z" fill="white"/>
<path d="M269.141 15.74C276.351 15.74 291.801 17.25 314.281 27.37C344.091 40.79 353.731 55.78 356.271 60.86L324.441 100.26C305.291 82.82 284.641 73.19 270.371 68.12C260.241 64.52 251.961 62.68 246.991 61.79C254.461 41.72 262.581 21.07 265.311 15.9C266.191 15.82 267.471 15.74 269.141 15.74ZM269.141 11.74C265.131 11.74 263.071 12.16 263.071 12.16C260.731 12.94 241.531 65 241.531 65C241.531 65 287.091 69.65 324.851 106.12L360.891 61.5C360.891 61.5 354.881 41.24 315.931 23.72C293.101 13.44 277.191 11.74 269.141 11.74Z" fill="#A0C6F4"/>
<path d="M248.219 69.05C248.219 69.05 293.019 73.5801 320.629 98.9201" stroke="#2A1E17" stroke-miterlimit="10" stroke-linecap="round" stroke-linejoin="round"/>
<path d="M286.91 66.8599L303.62 34.3599L320.8 68.2499L286.91 66.8599Z" fill="#A0C6F4"/>
<path d="M290.16 66.3999L306.87 33.8999L324.05 67.7899L290.16 66.3999Z" stroke="#2A1E17" stroke-miterlimit="10" stroke-linecap="round" stroke-linejoin="round"/>
<path d="M274.469 9.76001C274.469 9.76001 324.699 14.29 355.929 51.39" stroke="#2A1E17" stroke-miterlimit="10" stroke-linecap="round" stroke-linejoin="round"/>
<path d="M300.129 153.78C297.369 151.75 295.559 150.39 295.559 150.39C296.319 149.37 308.409 136.49 315.409 126.11C315.419 126.12 301.259 154.61 300.129 153.78Z" fill="#2A1E17"/>
<path d="M128.852 59.9099C130.202 62.1499 130.792 61.2599 134.682 60.9599C138.572 60.6599 144.102 63.4999 146.052 68.2899C148.002 73.0799 147.402 73.8199 146.352 74.4199C145.302 75.0199 137.822 75.9199 137.522 77.4099" stroke="#2A1E17" stroke-miterlimit="10" stroke-linecap="round" stroke-linejoin="round"/>
<path d="M229.62 303.37L226.13 297.48L213.77 318.09L217.01 320.58L229.62 303.37Z" fill="#F9865F"/>
<path d="M147.521 252.27C147.521 252.27 141.111 241.85 143.861 236.75L164.301 238.94L147.521 252.27Z" fill="#F9865F"/>
<path d="M147.521 252.27L148.741 255.08L144.961 269.8C144.481 271.65 145.101 273.62 146.551 274.87L165.241 247.24C167.021 244.62 166.611 241.09 164.291 238.93L160.111 235.05L147.521 252.27Z" fill="black"/>
<path d="M137.521 77.4099C143.371 77.2699 150.791 76.8999 149.311 72.4499C147.831 67.9999 142.261 56.8699 129.651 60.2099C129.651 60.2099 125.201 63.9199 130.761 70.5899C136.331 77.2699 137.521 77.4099 137.521 77.4099Z" fill="#2A1E33"/>
<path d="M167.148 239.19C167.148 239.19 157.158 209.69 165.608 196.74C172.588 186.05 195.378 203.44 198.508 205.78L214.818 176.32C214.818 176.32 211.048 171.04 201.808 165.87C192.568 160.7 154.378 145.22 136.428 173.54C129.798 184.01 129.698 228.91 142.418 246.12L167.148 239.19Z" fill="#7595EC"/>
<path d="M167.149 239.19C167.149 239.19 157.159 209.69 165.609 196.74C172.589 186.05 195.379 203.44 198.509 205.78" stroke="#2A1E17" stroke-miterlimit="10" stroke-linecap="round" stroke-linejoin="round"/>
<path d="M214.821 176.32C207.401 184.13 185.411 222.17 180.461 240.35C173.841 264.67 176.331 284.84 212.691 324.33L230.271 298.73C230.271 298.73 217.911 279.96 220.221 262.28C223.561 236.69 241.771 211.88 250.981 196.14L214.821 176.32Z" fill="#7595EC"/>
<path d="M217.609 179.62L246.839 202.57L255.579 189.29L217.609 179.62Z" fill="#2A1E17"/>
<path d="M385.531 155.5C390.091 156.48 393.561 158.21 395.951 160.71C398.341 163.21 397.251 164.51 396.381 165.27C395.511 166.03 392.151 165.16 389.221 162.56C386.291 159.96 385.531 155.5 385.531 155.5Z" fill="#FF8A66"/>
<path d="M295.559 150.39C296.319 149.37 308.409 136.49 315.409 126.11C315.409 126.11 336.559 149.81 338.859 150.58C339.709 150.86 344.899 150.8 351.339 150.73C362.219 150.62 376.689 150.51 379.889 152.11C384.989 154.66 388.049 155.93 389.319 159.5C390.589 163.07 391.099 165.4 388.049 165.62C384.479 165.87 382.189 161.29 382.189 161.29C382.189 161.29 379.269 163.05 371.739 165.88C371.739 165.88 344.629 176.4 326.509 171.31C321.569 169.92 295.559 150.39 295.559 150.39Z" fill="#F9865F"/>
<path d="M131.24 55.72C128.91 56.61 127.5 57.66 128.85 59.91C130.2 62.15 130.79 61.26 134.68 60.96C138.57 60.66 144.1 63.5 146.05 68.29C148 73.08 147.4 73.82 146.35 74.42C145.3 75.02 137.82 75.92 137.52 77.41C137.22 78.91 140.55 83.32 147.43 83.02L149.08 82.72C149.08 82.72 163.55 96.85 165.64 98.95C167.73 101.05 183.12 111.47 191.6 113.59C198.04 115.2 211.1 113.12 218.94 111.59C222.75 110.85 225.33 110.23 225.33 110.23C225.33 110.23 219.44 99.63 218.25 83.32C218.25 83.32 204.17 85.58 194.81 87.64C194.81 87.64 172.97 75.46 162.35 70.08C162.35 70.08 153.08 58.71 148.74 57.22C144.4 55.72 134.38 54.53 131.24 55.72Z" fill="#F9865F"/>
<path d="M218.952 111.59C222.762 110.85 225.342 110.23 225.342 110.23C225.342 110.23 218.222 101.25 217.022 84.95C217.022 84.95 213.802 88.4199 214.802 97.6499C216.062 109.27 218.952 111.59 218.952 111.59Z" fill="#2A1E17"/>
<path d="M216.681 83.1298C216.681 83.1298 216.881 103.05 222.221 111.37L224.131 110.6C224.131 110.6 198.971 140.03 190.841 159.26C189.511 162.41 243.071 196.62 250.981 196.14C250.981 196.14 277.081 156.31 286.001 144.51L295.591 151.94C295.591 151.94 314.401 132.89 315.411 126.12C315.411 126.12 297.241 104.01 282.371 97.5298C267.501 91.0598 254.221 79.9598 238.251 80.2698C224.431 80.5298 216.681 83.1298 216.681 83.1298Z" fill="#FFF7C9"/>
<path d="M295.59 151.94L286 144.5L287.53 140.34L295.59 151.94Z" fill="#2A1E17"/>
<path d="M310.181 73.15C308.501 78.37 303.651 93.48 298.241 95.35C292.831 97.22 287.201 94.87 287.201 94.87L281.441 97.82C280.801 99.75 276.251 101.41 270.381 101.64C266.031 101.81 263.381 96.22 264.671 92.18C265.261 90.32 267.471 81.17 267.471 81.17C267.471 81.17 272.131 64.01 276.421 60.46C280.711 56.92 284.741 53.41 296.191 58.03C313.731 65.13 310.181 73.15 310.181 73.15Z" fill="#F9865F"/>
<path d="M275.421 73.89C274.651 77.1 271.311 83.51 269.131 82.36C266.951 81.21 266.181 78.25 267.721 72.61C269.261 66.97 270.541 54.13 274.901 51.83C279.261 49.52 281.191 52.21 281.191 52.21C281.191 52.21 279.271 42.84 284.911 41.56C284.911 41.56 286.831 40.66 286.061 47.08C286.061 47.08 288.241 41.18 295.301 41.95C302.361 42.72 304.791 52.6 304.791 52.6C304.791 52.6 305.301 49.91 308.511 49.91C311.721 49.91 316.591 54.66 315.441 59.92C315.441 59.92 323.651 57.35 328.011 63.9C332.371 70.44 331.861 77.63 321.341 80.45C310.341 83.4 310.431 70.57 308.771 68.9C307.101 67.23 305.311 65.31 299.151 67.62C292.991 69.93 286.581 63.13 286.581 63.13C286.581 63.13 285.551 71.34 284.531 72.11C283.501 72.88 281.451 73.91 281.961 70.06C282.471 66.21 283.111 66.6 282.731 65.57C282.351 64.54 280.611 61.31 276.961 64.16C272.851 67.35 275.421 73.89 275.421 73.89Z" fill="#2A1E33"/>
<path d="M277.159 75.3299C274.709 73.2699 273.019 69.6499 275.169 66.0299C277.319 62.4099 280.849 61.9199 281.919 63.2899C282.999 64.6599 283.409 66.9699 282.399 69.7099" stroke="#2A1E33" stroke-miterlimit="10" stroke-linecap="round" stroke-linejoin="round"/>
<path d="M217.009 320.58L218.229 323.39L214.449 338.11C213.969 339.96 214.589 341.93 216.039 343.18L234.729 315.55C236.509 312.93 236.099 309.4 233.779 307.24L229.599 303.36L217.009 320.58Z" fill="black"/>
<path d="M281.189 52.2098C281.189 52.2098 279.759 47.5498 275.469 46.3298" stroke="#2A1E33" stroke-miterlimit="10" stroke-linecap="round" stroke-linejoin="round"/>
<path d="M190.25 157.85L242.03 85.5198" stroke="#2A1E17" stroke-miterlimit="10" stroke-linecap="round" stroke-linejoin="round"/>
<path d="M263.379 90.5798C261.509 93.0098 260.659 103.44 269.249 104.12C277.829 104.8 283.319 101.03 283.319 101.03" stroke="#2A1E17" stroke-miterlimit="10" stroke-linecap="round" stroke-linejoin="round"/>
<path d="M148.738 57.22C148.738 57.22 154.658 65.05 155.588 67.84" stroke="#2A1E17" stroke-miterlimit="10" stroke-linecap="round" stroke-linejoin="round"/>
<path d="M370.359 162.25C370.359 162.25 374.309 165.51 382.189 161.29C385.049 159.76 383.009 156.15 379.399 157.05C375.789 157.95 371.489 156.6 371.489 156.6" stroke="#2A1E17" stroke-miterlimit="10" stroke-linecap="round" stroke-linejoin="round"/>
<path d="M386.879 155.95C386.879 155.95 390.669 160.38 390.569 163.01" stroke="#2A1E17" stroke-miterlimit="10" stroke-linecap="round" stroke-linejoin="round"/>
<path d="M331.051 155.47C331.051 155.47 334.481 150.9 338.871 150.59" stroke="#2A1E17" stroke-miterlimit="10" stroke-linecap="round" stroke-linejoin="round"/>
<path d="M186.391 95.0299C186.391 95.0299 188.391 88.7899 194.811 87.6399" stroke="#2A1E17" stroke-miterlimit="10" stroke-linecap="round" stroke-linejoin="round"/>
<path d="M203.781 189.7L196.131 204.34C196.131 204.34 170.891 247.06 179.451 274.65" stroke="#2A1E17" stroke-miterlimit="10" stroke-linecap="round" stroke-linejoin="round"/>
<path d="M226.141 238.71L250.971 196.14C250.971 196.14 283.521 148.93 286.851 142.27L298.341 121.02" stroke="#2A1E17" stroke-miterlimit="10" stroke-linecap="round" stroke-linejoin="round"/>
<path d="M193.719 162.39C193.719 162.39 237.879 194.59 250.979 196.14" stroke="#2A1E17" stroke-miterlimit="10" stroke-linecap="round" stroke-linejoin="round"/>
<path d="M216.68 83.1299C216.68 83.1299 216.64 103.34 222.09 111.62" stroke="#2A1E17" stroke-miterlimit="10" stroke-linecap="round" stroke-linejoin="round"/>
<path d="M314 122.91C312.61 131.24 294.18 148.73 294.18 148.73" stroke="#2A1E17" stroke-miterlimit="10" stroke-linecap="round" stroke-linejoin="round"/>
<path d="M176.44 226.64C177.887 226.64 179.06 225.467 179.06 224.02C179.06 222.573 177.887 221.4 176.44 221.4C174.993 221.4 173.82 222.573 173.82 224.02C173.82 225.467 174.993 226.64 176.44 226.64Z" fill="#2A1E17"/>
<path d="M422.481 280.37L421.031 270.34L429.581 276.03L425.111 277L422.481 280.37Z" stroke="#2A1E17" stroke-miterlimit="10" stroke-linecap="round" stroke-linejoin="round"/>
<path d="M138.738 109.14C122.528 94.84 95.7382 130.51 193.768 244.04C250.318 309.54 294.748 315.41 300.768 292.62C311.568 251.74 272.568 241.41 287.078 257.42C308.178 280.7 368.198 285.62 412.918 263.89C457.048 242.45 429.918 209.16 427.178 207.22" stroke="#2A1E17" stroke-miterlimit="10" stroke-linecap="round" stroke-linejoin="round"/>
<path d="M413.632 266.31C415.079 266.31 416.252 265.137 416.252 263.69C416.252 262.243 415.079 261.07 413.632 261.07C412.185 261.07 411.012 262.243 411.012 263.69C411.012 265.137 412.185 266.31 413.632 266.31Z" fill="#2A1E17"/>
<path d="M375.469 285.1L453.199 241.28" stroke="#2A1E17" stroke-miterlimit="10" stroke-linecap="round" stroke-linejoin="round"/>
<path d="M140.35 113.88C141.797 113.88 142.97 112.707 142.97 111.26C142.97 109.813 141.797 108.64 140.35 108.64C138.903 108.64 137.73 109.813 137.73 111.26C137.73 112.707 138.903 113.88 140.35 113.88Z" fill="#2A1E17"/>
<path d="M207.22 62.74C210.329 62.74 212.85 60.2193 212.85 57.11C212.85 54.0006 210.329 51.48 207.22 51.48C204.11 51.48 201.59 54.0006 201.59 57.11C201.59 60.2193 204.11 62.74 207.22 62.74Z" fill="#FF6D66"/>
<path d="M105.13 14.2C103.76 14.2 102.66 15.31 102.66 16.67C102.66 18.03 103.77 19.14 105.13 19.14C106.5 19.14 107.6 18.03 107.6 16.67C107.6 15.31 106.5 14.2 105.13 14.2Z" fill="#A0C6F4"/>
<path d="M436.529 321.38C437.893 321.38 438.999 320.274 438.999 318.91C438.999 317.546 437.893 316.44 436.529 316.44C435.164 316.44 434.059 317.546 434.059 318.91C434.059 320.274 435.164 321.38 436.529 321.38Z" fill="#FAD8B0"/>
<path d="M392.34 207.21L365.75 194.73C363.6 193.72 363.64 190.66 365.81 189.7L415.27 167.94C415.97 167.63 416.77 167.63 417.47 167.93L451.45 182.51L392.34 207.21Z" fill="#2A1E33"/>
<path d="M390.691 166.2C390.761 177.2 392.341 207.21 392.341 207.21L451.451 182.52L450.121 140.77C450.041 138.21 447.381 136.55 445.041 137.62L394.141 160.81C392.031 161.77 390.681 163.88 390.691 166.2Z" fill="#C6CBCB"/>
<path d="M392.34 207.21L451.45 182.52L450.12 140.77C450.12 140.77 449.73 136.21 445.04 137.62" stroke="#2A1E17" stroke-miterlimit="10" stroke-linecap="round" stroke-linejoin="round"/>
<path d="M420.949 177.2L424.939 167.77" stroke="#2A1E17" stroke-miterlimit="10" stroke-linecap="round" stroke-linejoin="round"/>
<path d="M424.941 177.2L428.931 167.77" stroke="#2A1E17" stroke-miterlimit="10" stroke-linecap="round" stroke-linejoin="round"/>
<path d="M115.79 280.1C117.154 280.1 118.26 278.994 118.26 277.63C118.26 276.266 117.154 275.16 115.79 275.16C114.426 275.16 113.32 276.266 113.32 277.63C113.32 278.994 114.426 280.1 115.79 280.1Z" fill="#FF6D66"/>
<path d="M324.319 293.33C326.219 293.33 327.759 291.79 327.759 289.89C327.759 287.99 326.219 286.45 324.319 286.45C322.419 286.45 320.879 287.99 320.879 289.89C320.879 291.79 322.419 293.33 324.319 293.33Z" fill="#FF6D66"/>
<path d="M141.421 314.3C145.441 316.23 157.151 321.1 172.651 321C173.501 320.99 174.151 321.74 174.051 322.59L171.891 339.72C171.811 340.33 171.351 340.82 170.751 340.93C166.371 341.75 148.731 344.17 135.531 332.98C135.121 332.63 134.951 332.07 135.091 331.55L139.451 315.22C139.681 314.36 140.631 313.92 141.421 314.3Z" fill="#FFF7DC"/>
<path d="M142.969 319.34C142.969 319.34 150.589 330.05 153.309 331.59C156.029 333.12 170.709 324.38 170.709 324.38" stroke="#2A1E17" stroke-miterlimit="10" stroke-linecap="round" stroke-linejoin="round"/>
<path d="M160.512 330.09L168.512 338.32" stroke="#2A1E17" stroke-miterlimit="10" stroke-linecap="round" stroke-linejoin="round"/>
<path d="M149.382 328.5L140.012 331.05" stroke="#2A1E17" stroke-miterlimit="10" stroke-linecap="round" stroke-linejoin="round"/>
<path d="M386.669 111.71H377.719V120.66H386.669V111.71Z" fill="#FFE1C0"/>
<path d="M378.931 232.4L381.591 237.01L384.251 241.62H378.931H373.621L376.271 237.01L378.931 232.4Z" fill="#A0C6F4"/>
<path d="M163.879 28.33L164.569 7.42002C164.499 5.47002 165.289 4.85002 166.489 4.58002C172.169 3.32002 189.439 -0.529982 208.219 5.03002C210.649 5.75002 210.569 7.03002 210.529 8.19002L209.859 28.13C209.809 29.59 208.279 30.65 206.569 30.4C201.089 29.6 193.629 29.35 186.049 29.41C178.219 29.48 171.249 30.06 166.369 31C164.519 31.35 163.819 29.96 163.879 28.33Z" stroke="#2A1E17" stroke-miterlimit="10" stroke-linecap="round" stroke-linejoin="round"/>
<path d="M170.199 25.27L181.129 12.47L193.229 24.41C189.059 23.06 170.199 25.27 170.199 25.27Z" stroke="#2A1E17" stroke-miterlimit="10" stroke-linecap="round" stroke-linejoin="round"/>
<path d="M187.828 18.3998L196.668 11.3198L204.118 16.6398L204.398 24.9498L193.228 24.4098" stroke="#2A1E17" stroke-miterlimit="10" stroke-linecap="round" stroke-linejoin="round"/>
<path d="M174.958 11.5316C175.06 10.5261 174.185 9.6141 173.003 9.49465C171.822 9.37519 170.782 10.0935 170.68 11.099C170.579 12.1045 171.454 13.0165 172.635 13.136C173.816 13.2554 174.857 12.5371 174.958 11.5316Z" stroke="#2A1E17" stroke-miterlimit="10" stroke-linecap="round" stroke-linejoin="round"/>
<path d="M375.271 300.03L382.601 313.57C383.371 314.78 383.101 315.47 382.431 316.09C379.291 319 369.751 327.87 355.751 331.32C353.941 331.77 353.511 330.92 353.111 330.17L346.121 317.26C345.611 316.31 346.181 315.07 347.361 314.59C351.141 313.06 355.971 310.45 360.761 307.59C365.711 304.64 369.921 301.68 372.671 299.27C373.741 298.35 374.701 298.97 375.271 300.03Z" stroke="#2A1E17" stroke-miterlimit="10" stroke-linecap="round" stroke-linejoin="round"/>
<path d="M372.39 304.32L370.2 316.51L358.07 313.42C361.24 312.74 372.39 304.32 372.39 304.32Z" stroke="#2A1E17" stroke-miterlimit="10" stroke-linecap="round" stroke-linejoin="round"/>
<path d="M363.749 315.24L360.759 323.02L354.059 322.41L350.789 317.23L358.079 313.42" stroke="#2A1E17" stroke-miterlimit="10" stroke-linecap="round" stroke-linejoin="round"/>
<path d="M376.477 315.385C377.271 315.022 377.664 314.182 377.357 313.509C377.049 312.836 376.156 312.585 375.363 312.947C374.569 313.31 374.175 314.15 374.483 314.823C374.79 315.496 375.683 315.748 376.477 315.385Z" stroke="#2A1E17" stroke-miterlimit="10" stroke-linecap="round" stroke-linejoin="round"/>
<path d="M339.57 68.85L369.37 91.65C370.02 92.15 370.96 92.02 371.45 91.36L375.95 85.26C376.42 84.62 376.3 83.73 375.69 83.24L346.32 59.74C345.66 59.21 344.7 59.35 344.21 60.03L339.29 66.83C338.81 67.46 338.94 68.36 339.57 68.85Z" fill="white" stroke="#2A1E17" stroke-miterlimit="10" stroke-linecap="round" stroke-linejoin="round"/>
<path d="M341.781 67.83L349.001 72.9L353.271 67.81L346.041 61.78L341.781 67.83Z" fill="#FF6D66"/>
<path d="M351.719 74.8799L358.959 80.6199L362.839 75.8499L355.549 69.9399L351.719 74.8799Z" fill="#FAD8B0"/>
<path d="M361.391 82.82L368.621 87.89L372.061 83.47L365.221 77.74L361.391 82.82Z" fill="#A0C6F4"/>
<path d="M399.019 36.9599L405.809 94.0199C405.959 95.2699 407.109 96.1599 408.349 95.9899L419.849 94.4199C421.049 94.2599 421.899 93.1699 421.789 91.9699L416.219 34.6299C416.099 33.3499 414.919 32.4299 413.649 32.6199L400.939 34.4799C399.729 34.6499 398.879 35.7499 399.019 36.9599Z" fill="white" stroke="#2A1E17" stroke-miterlimit="10" stroke-linecap="round" stroke-linejoin="round"/>
<path d="M402.5 38.2998L404.65 51.6398L414.79 50.8898L413.68 36.5198L402.5 38.2998Z" fill="#FF6D66"/>
<path d="M405.379 56.7399L406.809 70.8099L416.189 69.9699L414.889 55.6699L405.379 56.7399Z" fill="#91BA83"/>
<path d="M406.988 75.8399L409.138 89.1799L417.668 88.2399L416.638 74.6099L406.988 75.8399Z" fill="#FAD8B0"/>
<path d="M384.2 49.1099L403 104.38C403.32 105.33 404.36 105.83 405.3 105.49L417.08 101.25C417.99 100.92 418.47 99.9399 418.18 99.0199L400.52 43.2099C400.21 42.2299 399.15 41.7099 398.19 42.0699L385.27 46.8599C384.37 47.1899 383.89 48.1899 384.2 49.1099Z" fill="white" stroke="#2A1E17" stroke-miterlimit="10" stroke-linecap="round" stroke-linejoin="round"/>
<path d="M388.02 50.12L392.9 62.73L402.66 59.8801L398.59 46.05L388.02 50.12Z" fill="#A0C6F4"/>
<path d="M394.68 67.56L399 81.03L408 78.26L403.76 64.53L394.68 67.56Z" fill="#F9865F"/>
<path d="M400.219 85.91L405.099 98.5099L413.249 95.81L409.409 82.7L400.219 85.91Z" fill="#FAD8B0"/>
<path d="M242.498 142.73H147.558C144.528 142.73 142.078 140.27 142.078 137.25V124.41C142.078 121.38 144.538 118.93 147.558 118.93H242.498C245.528 118.93 247.978 121.39 247.978 124.41V137.25C247.988 140.27 245.528 142.73 242.498 142.73Z" fill="#7595EC"/>
<path d="M206.929 129.55H155.169C154.169 129.55 153.359 128.74 153.359 127.74C153.359 126.74 154.169 125.93 155.169 125.93H206.929C207.929 125.93 208.739 126.74 208.739 127.74C208.739 128.74 207.929 129.55 206.929 129.55Z" fill="white"/>
<path d="M153.879 134.25H241.869" stroke="#2A1E17" stroke-miterlimit="10" stroke-linecap="round" stroke-linejoin="round"/>
<path d="M110.358 75.7699L108.858 74.1299L103.898 78.6599L105.398 80.2999C106.028 80.9899 107.108 81.0399 107.798 80.4099L110.248 78.1699C110.938 77.5399 110.988 76.4699 110.358 75.7699Z" fill="#91BA83"/>
<path d="M101.709 65.1598L108.769 72.8898C109.129 73.2898 109.109 73.9098 108.709 74.2698L103.829 78.7298C103.429 79.0898 102.809 79.0698 102.449 78.6698L95.3886 70.9398C95.0286 70.5398 95.0486 69.9198 95.4486 69.5598L100.329 65.0998C100.719 64.7298 101.339 64.7598 101.709 65.1598Z" stroke="#2A1E17" stroke-miterlimit="10" stroke-linecap="round" stroke-linejoin="round"/>
<path d="M87.9989 106.06H79.1289V114.16H87.9989V106.06Z" fill="#FF6D66"/>
<path d="M79.1281 100.85V106.06H73.8281" stroke="#2A1E17" stroke-miterlimit="10" stroke-linecap="round" stroke-linejoin="round"/>
<path d="M380.249 14.5898H371.379V22.6898H380.249V14.5898Z" fill="#FAD8B0"/>
<path d="M371.378 9.37988V14.5899H366.078" stroke="#2A1E17" stroke-miterlimit="10" stroke-linecap="round" stroke-linejoin="round"/>
<path d="M131.298 64.6598C39.3282 26.5398 -31.4718 99.9599 141.888 212.38C155.538 221.23 176.468 224.34 176.468 224.34" stroke="#2A1E17" stroke-miterlimit="10" stroke-linecap="round" stroke-linejoin="round"/>
<path d="M46.7098 69.8399C48.1568 69.8399 49.3298 68.6668 49.3298 67.2199C49.3298 65.7729 48.1568 64.5999 46.7098 64.5999C45.2629 64.5999 44.0898 65.7729 44.0898 67.2199C44.0898 68.6668 45.2629 69.8399 46.7098 69.8399Z" fill="#2A1E17"/>
<path d="M30.0312 52.8298L32.9013 50.0698L39.4913 53.8498L42.8113 64.0798L32.6812 59.8398L30.0312 52.8298Z" stroke="#2A1E17" stroke-miterlimit="10" stroke-linecap="round" stroke-linejoin="round"/>
<path d="M32.9019 50.07L30.0319 52.83L28.4219 50.88L31.1719 48.24L32.9019 50.07Z" stroke="#2A1E17" stroke-miterlimit="10" stroke-linecap="round" stroke-linejoin="round"/>
<path d="M42.8088 64.0799L36.2188 56.8499" stroke="#2A1E17" stroke-miterlimit="10" stroke-linecap="round" stroke-linejoin="round"/>
<path d="M58.7492 247.66L65.8992 284.49C66.0592 285.3 66.8492 285.82 67.6492 285.65L75.0592 284.08C75.8292 283.92 76.3392 283.17 76.1992 282.39L69.8292 245.31C69.6892 244.48 68.8792 243.94 68.0592 244.12L59.8692 245.94C59.0992 246.12 58.5992 246.88 58.7492 247.66Z" fill="white" stroke="#2A1E17" stroke-miterlimit="10" stroke-linecap="round" stroke-linejoin="round"/>
<path d="M61.0781 248.36L63.1081 256.95L69.6781 255.98L68.2781 246.67L61.0781 248.36Z" fill="#FF6D66"/>
<path d="M63.8398 260.24L65.4398 269.33L71.5098 268.34L69.9798 259.08L63.8398 260.24Z" fill="#FAD8B0"/>
<path d="M65.7891 272.6L67.8291 281.19L73.3391 280.16L72.0291 271.34L65.7891 272.6Z" fill="#A0C6F4"/>
<path d="M263.441 339.97L293.641 331.89L294.801 335.16L264.251 343.09L263.441 339.97Z" stroke="#2A1E17" stroke-miterlimit="10" stroke-linecap="round" stroke-linejoin="round"/>
<path d="M259.238 335.75L260.118 338.49" stroke="#2A1E17" stroke-miterlimit="10" stroke-linecap="round" stroke-linejoin="round"/>
<path d="M258.391 337.54L260.941 336.66" stroke="#2A1E17" stroke-miterlimit="10" stroke-linecap="round" stroke-linejoin="round"/>
<path d="M257.781 346.22L259.421 351.4" stroke="#2A1E17" stroke-miterlimit="10" stroke-linecap="round" stroke-linejoin="round"/>
<path d="M256.379 349.5L260.919 348.06" stroke="#2A1E17" stroke-miterlimit="10" stroke-linecap="round" stroke-linejoin="round"/>
<path d="M250.871 337.68L253.021 344.54" stroke="#2A1E17" stroke-miterlimit="10" stroke-linecap="round" stroke-linejoin="round"/>
<path d="M248.738 341.95L255.098 339.92" stroke="#2A1E17" stroke-miterlimit="10" stroke-linecap="round" stroke-linejoin="round"/>
<path d="M43.1686 11.81L24.0586 3.18L24.8486 1L44.0786 9.85L43.1686 11.81Z" stroke="#2A1E17" stroke-width="0.6707" stroke-miterlimit="10" stroke-linecap="round" stroke-linejoin="round"/>
<path d="M43.5586 15.79L44.2686 13.99" stroke="#2A1E17" stroke-width="0.6707" stroke-miterlimit="10" stroke-linecap="round" stroke-linejoin="round"/>
<path d="M44.7586 15.2198L43.0586 14.5898" stroke="#2A1E17" stroke-width="0.6707" stroke-miterlimit="10" stroke-linecap="round" stroke-linejoin="round"/>
<path d="M48.7617 10.9698L50.1117 7.58984" stroke="#2A1E17" stroke-width="0.6707" stroke-miterlimit="10" stroke-linecap="round" stroke-linejoin="round"/>
<path d="M50.8819 9.85993L47.9219 8.67993" stroke="#2A1E17" stroke-width="0.6707" stroke-miterlimit="10" stroke-linecap="round" stroke-linejoin="round"/>
<path d="M48.7188 18.3399L50.5187 13.8699" stroke="#2A1E17" stroke-width="0.6707" stroke-miterlimit="10" stroke-linecap="round" stroke-linejoin="round"/>
<path d="M51.6405 17.0299L47.4805 15.3799" stroke="#2A1E17" stroke-width="0.6707" stroke-miterlimit="10" stroke-linecap="round" stroke-linejoin="round"/>
<path d="M114.611 173.26C101.141 163.56 87.9012 148.48 93.7012 133C93.7012 133 102.991 126.81 117.701 134.55C132.411 142.29 132.411 142.29 132.411 142.29L114.611 173.26Z" fill="#FAD8B0"/>
<path d="M108.498 237.88C102.438 235.01 76.5476 221.54 71.9376 198.51C67.9576 178.61 83.1776 151.79 90.7976 139.94C90.3076 155.67 106.108 168.98 113.728 174.47C121.448 180.03 127.128 182.75 134.958 185.69L108.498 237.88Z" fill="white"/>
<path d="M89.6492 144.62C91.2992 155.07 99.2792 165.91 112.859 175.69C120.189 180.97 125.709 183.73 132.879 186.5L107.839 235.89C100.209 232.08 77.6192 219.19 73.4292 198.22C69.9192 180.75 81.7692 157.58 89.6492 144.62ZM93.7092 132.99C93.7092 132.99 65.0592 171.7 70.4792 198.8C75.8992 225.9 109.189 239.84 109.189 239.84L137.059 184.87C128.349 181.68 122.689 179.08 114.609 173.26C101.139 163.55 87.8992 148.48 93.7092 132.99Z" fill="#FAD8B0"/>
<path d="M86.1719 155.49C86.1719 155.49 87.8419 171.04 103.392 179.37" stroke="#2A1E17" stroke-miterlimit="10" stroke-linecap="round" stroke-linejoin="round"/>
<path d="M111.719 184.93L127.269 193.26" stroke="#2A1E17" stroke-miterlimit="10" stroke-linecap="round" stroke-linejoin="round"/>
<path d="M88.3906 177.71C88.3906 177.71 93.3906 188.82 109.501 196.04" stroke="#2A1E17" stroke-miterlimit="10" stroke-linecap="round" stroke-linejoin="round"/>
<path d="M75.6211 179.37C75.6211 179.37 76.1811 191.03 83.9511 194.92" stroke="#2A1E17" stroke-miterlimit="10" stroke-linecap="round" stroke-linejoin="round"/>
<path d="M93.3894 138.83C93.3894 138.83 91.9494 153.81 114.609 173.26" stroke="#2A1E17" stroke-miterlimit="10" stroke-linecap="round" stroke-linejoin="round"/>
<path d="M101.719 141.6C101.719 141.6 108.939 141.04 119.489 148.82" stroke="#2A1E17" stroke-miterlimit="10" stroke-linecap="round" stroke-linejoin="round"/>
<path d="M67.7682 189.43C67.3082 196.86 68.2282 223.79 107.228 240.96" stroke="#2A1E17" stroke-miterlimit="10" stroke-linecap="round" stroke-linejoin="round"/>
<path d="M316.802 174.45L300.262 207.6C300.262 207.6 311.482 211.73 302.712 224.59C302.712 224.59 323.452 233.19 337.022 210.85C350.592 188.51 316.802 174.45 316.802 174.45Z" fill="#91BA83"/>
<path d="M278.94 275.77C270.57 275.77 261.73 272.35 252.66 265.61L283.61 214.35L302.02 225.94L302.14 225.99C302.31 226.06 306.41 227.73 312.19 227.73C316.84 227.73 322.71 226.64 328.42 222.6L305.8 261.3C305.74 261.36 296 275.76 278.94 275.77Z" fill="white"/>
<path d="M284.1 216.42L301.1 227.13L301.31 227.27L301.54 227.37C301.72 227.45 306.09 229.23 312.17 229.23C315.72 229.23 319.94 228.63 324.27 226.69L304.53 260.46C303.88 261.4 294.72 274.28 278.92 274.28C271.21 274.28 263.05 271.23 254.64 265.21L284.1 216.42ZM337.01 210.86C329.34 223.48 319.39 226.22 312.18 226.22C306.63 226.22 302.7 224.59 302.7 224.59L283.11 212.25L250.68 265.98C261.54 274.35 271.01 277.26 278.94 277.26C297.06 277.26 307.09 262.04 307.09 262.04L337.01 210.86Z" fill="#96BD89"/>
<path d="M300.262 207.6C300.262 207.6 312.602 211.96 302.712 224.59" stroke="#2A1E17" stroke-miterlimit="10" stroke-linecap="round" stroke-linejoin="round"/>
<path d="M282.73 211.1C282.73 211.1 299.54 226.49 308.84 226.39C318.14 226.29 329.05 224.07 335.49 212.97" stroke="#2A1E17" stroke-miterlimit="10" stroke-linecap="round" stroke-linejoin="round"/>
<path d="M284.789 231.02C284.789 231.02 296.329 241.26 309.219 237.97" stroke="#2A1E17" stroke-miterlimit="10" stroke-linecap="round" stroke-linejoin="round"/>
<path d="M296.91 246.33C296.91 246.33 302.96 250.87 311.42 246.58" stroke="#2A1E17" stroke-miterlimit="10" stroke-linecap="round" stroke-linejoin="round"/>
<path d="M269.07 252.64C269.07 252.64 283.03 266.53 305.02 257.37" stroke="#2A1E17" stroke-miterlimit="10" stroke-linecap="round" stroke-linejoin="round"/>
<path d="M276.672 239.09C276.672 239.09 282.372 243.16 285.942 244.46" stroke="#2A1E17" stroke-miterlimit="10" stroke-linecap="round" stroke-linejoin="round"/>
<path d="M319.641 184.07C319.641 184.07 332.391 188.24 333.921 205.06" stroke="#2A1E17" stroke-miterlimit="10" stroke-linecap="round" stroke-linejoin="round"/>
<path d="M326.05 204.86C326.05 204.86 331.92 213.94 322 223.03" stroke="#2A1E17" stroke-miterlimit="10" stroke-linecap="round" stroke-linejoin="round"/>
<path d="M251.859 268.52C251.859 268.52 283.869 295.94 307.109 263.88" stroke="#2A1E17" stroke-miterlimit="10" stroke-linecap="round" stroke-linejoin="round"/>
<path d="M20.7812 164.1H28.2412" stroke="#FF6D66" stroke-miterlimit="10" stroke-linecap="round" stroke-linejoin="round"/>
<path d="M436.531 74.3298H443.991" stroke="#FF6D66" stroke-miterlimit="10" stroke-linecap="round" stroke-linejoin="round"/>
<path d="M236.379 23.1299H243.849" stroke="#FAD8B0" stroke-miterlimit="10"/>
<path d="M450.781 113.04L458.121 114.36" stroke="#FAD8B0" stroke-miterlimit="10"/>
<path d="M157.602 299.27H165.072" stroke="#A0C6F4" stroke-miterlimit="10" stroke-linecap="round" stroke-linejoin="round"/>
<path d="M466.861 208.7C468.225 208.7 469.331 207.594 469.331 206.23C469.331 204.866 468.225 203.76 466.861 203.76C465.496 203.76 464.391 204.866 464.391 206.23C464.391 207.594 465.496 208.7 466.861 208.7Z" fill="#91BA83"/>
<path d="M2.47 90.0799C3.83414 90.0799 4.94 88.974 4.94 87.6099C4.94 86.2457 3.83414 85.1399 2.47 85.1399C1.10586 85.1399 0 86.2457 0 87.6099C0 88.974 1.10586 90.0799 2.47 90.0799Z" fill="#91BA83"/>
</svg>
