<svg width="468" height="361" viewBox="0 0 468 361" fill="none" xmlns="http://www.w3.org/2000/svg">
<path d="M324.858 244.771C326.182 244.771 327.255 243.699 327.255 242.376C327.255 241.054 326.182 239.982 324.858 239.982C323.535 239.982 322.462 241.054 322.462 242.376C322.462 243.699 323.535 244.771 324.858 244.771Z" stroke="#2A1E17" stroke-width="0.7222" stroke-miterlimit="10" stroke-linecap="round" stroke-linejoin="round"/>
<path d="M180 255L182.768 258.757L186.459 256.459L189.103 260.45" stroke="#2A1E17" stroke-width="0.7222" stroke-miterlimit="10" stroke-linecap="round" stroke-linejoin="round"/>
<path d="M121.396 359.79C122.72 359.79 123.792 358.717 123.792 357.395C123.792 356.072 122.72 355 121.396 355C120.073 355 119 356.072 119 357.395C119 358.717 120.073 359.79 121.396 359.79Z" stroke="#2A1E17" stroke-width="0.7222" stroke-miterlimit="10" stroke-linecap="round" stroke-linejoin="round"/>
<path d="M306.325 214.756C307.147 214.756 307.813 214.091 307.813 213.27C307.813 212.449 307.147 211.783 306.325 211.783C305.504 211.783 304.838 212.449 304.838 213.27C304.838 214.091 305.504 214.756 306.325 214.756Z" fill="#2A1E17"/>
<path d="M192.122 85.7482C192.943 85.7482 193.609 85.0827 193.609 84.2618C193.609 83.4409 192.943 82.7754 192.122 82.7754C191.3 82.7754 190.634 83.4409 190.634 84.2618C190.634 85.0827 191.3 85.7482 192.122 85.7482Z" fill="#2A1E17"/>
<path d="M33.7095 138.322C35.0329 138.322 36.1057 137.25 36.1057 135.927C36.1057 134.605 35.0329 133.533 33.7095 133.533C32.3862 133.533 31.3134 134.605 31.3134 135.927C31.3134 137.25 32.3862 138.322 33.7095 138.322Z" stroke="#2A1E17" stroke-width="0.7222" stroke-miterlimit="10" stroke-linecap="round" stroke-linejoin="round"/>
<path d="M8.75452 246.326H21.5618" stroke="#2A1E17" stroke-width="0.7222" stroke-miterlimit="10" stroke-linecap="round" stroke-linejoin="round"/>
<path d="M65.4806 49.6423L61.0462 51.0462L62.024 55.2714L57.3969 56.5101" stroke="#2A1E17" stroke-width="0.7222" stroke-miterlimit="10" stroke-linecap="round" stroke-linejoin="round"/>
<path d="M94.7286 303.821H40.5801C39.3544 303.821 38.3629 302.83 38.3629 301.605V291.545C38.3629 290.32 39.3544 289.329 40.5801 289.329H94.7286C95.9542 289.329 96.9457 290.32 96.9457 291.545V301.605C96.9457 302.83 95.9542 303.821 94.7286 303.821Z" fill="#FF835C"/>
<path d="M67.4338 298.165H92.3735" stroke="#2A1E17" stroke-width="0.7222" stroke-miterlimit="10" stroke-linecap="round" stroke-linejoin="round"/>
<path d="M67.4338 295.302H92.3735" stroke="#2A1E17" stroke-width="0.7222" stroke-miterlimit="10" stroke-linecap="round" stroke-linejoin="round"/>
<path d="M62.7241 298.647H45.6064C44.5322 298.647 43.6647 297.78 43.6647 296.706C43.6647 295.633 44.5322 294.766 45.6064 294.766H62.7241C63.7983 294.766 64.6658 295.633 64.6658 296.706C64.6521 297.78 63.7845 298.647 62.7241 298.647Z" fill="#F9F8F6"/>
<path d="M319.991 338.51H309.773V348.722H319.991V338.51Z" stroke="#2A1E17" stroke-width="0.7222" stroke-miterlimit="10" stroke-linecap="round" stroke-linejoin="round"/>
<path d="M330.223 328.807H320.005V339.019H330.223V328.807Z" fill="#7CA4FF"/>
<path d="M396.727 103.219H372.297C370.865 103.219 369.694 104.375 369.694 105.82H399.316C399.33 104.389 398.16 103.219 396.727 103.219Z" fill="#9FCA78"/>
<path d="M397.664 133.429H371.375C370.452 133.429 369.708 132.686 369.708 131.764V105.821H399.33V131.75C399.33 132.672 398.587 133.429 397.664 133.429Z" fill="white" stroke="#2A1E17" stroke-width="0.7222" stroke-miterlimit="10" stroke-linecap="round" stroke-linejoin="round"/>
<path d="M395.295 119.983H374.101C373.564 119.983 373.137 119.556 373.137 119.019V110.637C373.137 110.101 373.564 109.674 374.101 109.674H395.295C395.832 109.674 396.259 110.101 396.259 110.637V119.019C396.273 119.542 395.832 119.983 395.295 119.983Z" fill="#9FCA78"/>
<path d="M395.695 128.571H373.688" stroke="#2A1E17" stroke-width="0.7222" stroke-miterlimit="10" stroke-linecap="round" stroke-linejoin="round"/>
<path d="M395.695 123.643H373.688" stroke="#2A1E17" stroke-width="0.7222" stroke-miterlimit="10" stroke-linecap="round" stroke-linejoin="round"/>
<path d="M37.1133 188.103C37.1133 188.103 35.7775 184.277 35.4332 182.625C34.2764 177.189 36.2319 172.771 33.643 168.614C31.0126 164.389 20.4363 161.265 15.5751 170.871C11.4299 179.06 19.252 184.511 22.8188 186.671C26.3855 188.832 27.9554 192.424 27.9554 192.424C27.9554 192.424 28.3686 190.539 32.0868 189.162C35.805 187.772 37.1133 188.103 37.1133 188.103Z" fill="#FFE179" stroke="#FFE179" stroke-width="0.7222" stroke-miterlimit="10"/>
<path d="M37.1133 188.103C37.1133 188.103 39.6334 193.112 34.6207 195.631C29.608 198.15 27.9417 192.41 27.9417 192.41C27.9417 192.41 28.6302 190.594 32.073 189.149C35.5158 187.703 37.1133 188.103 37.1133 188.103Z" stroke="#2A1E17" stroke-width="0.7222" stroke-miterlimit="10" stroke-linecap="round" stroke-linejoin="round"/>
<path d="M29.7044 190.429L23.9756 182.226" stroke="#2A1E17" stroke-width="0.7222" stroke-miterlimit="10" stroke-linecap="round" stroke-linejoin="round"/>
<path d="M33.6429 188.089L31.2605 178.014" stroke="#2A1E17" stroke-width="0.7222" stroke-miterlimit="10" stroke-linecap="round" stroke-linejoin="round"/>
<path d="M24.733 182.818C24.733 182.818 26.8263 181.992 26.8263 178.799C26.8263 178.799 30.1589 181.676 31.5498 179.515" stroke="#2A1E17" stroke-width="0.7222" stroke-miterlimit="10" stroke-linecap="round" stroke-linejoin="round"/>
<path d="M29.9386 194.957C29.9386 194.957 32.1695 190.222 37.9535 191.007" stroke="#2A1E17" stroke-width="0.7222" stroke-miterlimit="10" stroke-linecap="round" stroke-linejoin="round"/>
<path d="M22.7086 167.899C22.7086 167.899 27.4184 165.875 31.0953 169.426" stroke="white" stroke-width="0.7222" stroke-miterlimit="10" stroke-linecap="round" stroke-linejoin="round"/>
<path d="M467.346 235.28H417.632V235.211C417.632 233.174 419.284 231.522 421.323 231.522H463.669C465.721 231.522 467.387 233.215 467.346 235.28Z" fill="#FF3D43"/>
<path d="M467.346 235.28H417.632V274.243C417.632 275.413 418.582 276.348 419.739 276.348H465.294C466.465 276.348 467.415 275.399 467.401 274.229L467.346 235.28Z" fill="white" stroke="#2A1E17" stroke-width="0.7222" stroke-miterlimit="10" stroke-linecap="round" stroke-linejoin="round"/>
<path d="M446.138 241.088H422.713V244.116H446.138V241.088Z" fill="#2A1E17"/>
<path d="M423.278 247.418H460.984" stroke="#2A1E17" stroke-width="0.7222" stroke-miterlimit="10" stroke-linecap="round" stroke-linejoin="round"/>
<path d="M431.678 253.708H459.483" stroke="#2A1E17" stroke-width="0.7222" stroke-miterlimit="10" stroke-linecap="round" stroke-linejoin="round"/>
<path d="M431.678 260.314H459.483" stroke="#2A1E17" stroke-width="0.7222" stroke-miterlimit="10" stroke-linecap="round" stroke-linejoin="round"/>
<path d="M431.678 266.673H459.483" stroke="#2A1E17" stroke-width="0.7222" stroke-miterlimit="10" stroke-linecap="round" stroke-linejoin="round"/>
<path d="M426.624 255.828C427.537 255.828 428.277 255.088 428.277 254.176C428.277 253.264 427.537 252.524 426.624 252.524C425.712 252.524 424.972 253.264 424.972 254.176C424.972 255.088 425.712 255.828 426.624 255.828Z" fill="#FF3D43"/>
<path d="M426.624 262.283C427.537 262.283 428.277 261.543 428.277 260.631C428.277 259.719 427.537 258.979 426.624 258.979C425.712 258.979 424.972 259.719 424.972 260.631C424.972 261.543 425.712 262.283 426.624 262.283Z" fill="#FF3D43"/>
<path d="M426.624 268.49C427.537 268.49 428.277 267.75 428.277 266.838C428.277 265.926 427.537 265.187 426.624 265.187C425.712 265.187 424.972 265.926 424.972 266.838C424.972 267.75 425.712 268.49 426.624 268.49Z" fill="#FF3D43"/>
<path d="M118.023 112.384L122.127 113.155L122.045 117.228L126.713 117.765L126.63 122.431" stroke="#2A1E17" stroke-width="0.7222" stroke-miterlimit="10" stroke-linecap="round" stroke-linejoin="round"/>
<path d="M389.433 158.206H398.619" stroke="#2A1E17" stroke-width="0.7222" stroke-miterlimit="10" stroke-linecap="round" stroke-linejoin="round"/>
<path d="M144.388 165.816C145.712 165.816 146.785 164.743 146.785 163.421C146.785 162.098 145.712 161.026 144.388 161.026C143.065 161.026 141.992 162.098 141.992 163.421C141.992 164.743 143.065 165.816 144.388 165.816Z" stroke="#2A1E17" stroke-width="0.7222" stroke-miterlimit="10" stroke-linecap="round" stroke-linejoin="round"/>
<path d="M330.922 161.731L333.69 165.488L337.367 163.19L340.024 167.181" stroke="#2A1E17" stroke-width="0.7222" stroke-miterlimit="10" stroke-linecap="round" stroke-linejoin="round"/>
<path d="M213.54 40.8853L212.92 35.5727H204.203C201.38 35.5727 199.094 33.2881 199.094 30.4667V12.4508C199.094 9.62939 201.38 7.34473 204.203 7.34473H229.212C232.035 7.34473 234.321 9.62939 234.321 12.4508V30.3978C234.321 33.2193 232.035 35.5039 229.212 35.5039H219.352L213.54 40.8853Z" fill="white" stroke="#2A1E17" stroke-width="0.7222" stroke-miterlimit="10" stroke-linecap="round" stroke-linejoin="round"/>
<path d="M211.474 28.6496H206.723V17.9006H211.254" fill="#7CA4FF"/>
<path d="M213.251 11.1157C214.256 11.1157 215.082 11.9277 215.082 12.9462V16.965H221.348C222.891 16.965 224.144 18.2175 224.144 19.7589V25.8559C224.144 27.3974 222.891 28.6498 221.348 28.6498H211.488L211.447 12.9462C211.419 11.9415 212.246 11.1157 213.251 11.1157Z" stroke="#2A1E17" stroke-width="0.7222" stroke-miterlimit="10" stroke-linecap="round" stroke-linejoin="round"/>
<path d="M87.2579 274.941H17.2587C15.675 274.941 14.3943 273.661 14.3943 272.078V259.059C14.3943 257.476 15.675 256.196 17.2587 256.196H87.2579C88.8416 256.196 90.1223 257.476 90.1223 259.059V272.078C90.1223 273.661 88.8416 274.941 87.2579 274.941Z" fill="#7CA4FF"/>
<path d="M51.976 267.633H84.2145" stroke="#2A1E17" stroke-width="0.7222" stroke-miterlimit="10" stroke-linecap="round" stroke-linejoin="round"/>
<path d="M51.976 263.931H84.2145" stroke="#2A1E17" stroke-width="0.7222" stroke-miterlimit="10" stroke-linecap="round" stroke-linejoin="round"/>
<path d="M45.8754 268.252H23.745C22.3679 268.252 21.2386 267.137 21.2386 265.747C21.2386 264.371 22.3541 263.242 23.745 263.242H45.8754C47.2525 263.242 48.3817 264.357 48.3817 265.747C48.3817 267.124 47.2525 268.252 45.8754 268.252Z" fill="#F9F8F6"/>
<path d="M299.523 59.9861H273.344C272.435 59.9861 271.705 59.2566 271.705 58.3483V43.5255C271.705 42.6171 272.435 41.8877 273.344 41.8877H299.523C300.432 41.8877 301.162 42.6171 301.162 43.5255V58.3483C301.162 59.2566 300.432 59.9861 299.523 59.9861Z" fill="#FFE179"/>
<path d="M275.602 45.0942L286.55 52.9942L298.338 45.0942" stroke="#2A1E17" stroke-width="0.7222" stroke-miterlimit="10" stroke-linecap="round" stroke-linejoin="round"/>
<path d="M274.707 56.9722L282.254 50.1045" stroke="#2A1E17" stroke-width="0.7222" stroke-miterlimit="10" stroke-linecap="round" stroke-linejoin="round"/>
<path d="M291.976 49.636L298.752 57.7975" stroke="#2A1E17" stroke-width="0.7222" stroke-miterlimit="10" stroke-linecap="round" stroke-linejoin="round"/>
<path d="M277.296 64.5001L288.272 57.0405L287.363 70.6384L283.521 65.3396L277.296 64.5001Z" stroke="#2A1E17" stroke-width="0.7222" stroke-miterlimit="10" stroke-linecap="round" stroke-linejoin="round"/>
<path d="M247.031 325.282H280.991" stroke="#2A1E17" stroke-width="0.7222" stroke-miterlimit="10" stroke-linecap="round" stroke-linejoin="round"/>
<path d="M250.639 329.039H272.164" stroke="#2A1E17" stroke-width="0.7222" stroke-miterlimit="10" stroke-linecap="round" stroke-linejoin="round"/>
<path d="M64.3232 112.043L47.4811 112.539C46.9027 112.552 46.4069 112.098 46.3931 111.52L46.1177 101.982C46.104 101.404 46.5584 100.909 47.1368 100.895L63.979 100.4C64.5573 100.386 65.0531 100.84 65.0668 101.418L65.3423 110.956C65.3698 111.534 64.9016 112.016 64.3232 112.043Z" fill="white" stroke="#2A1E17" stroke-width="0.7222" stroke-miterlimit="10" stroke-linecap="round" stroke-linejoin="round"/>
<path d="M48.6516 102.918L55.854 107.777L63.2767 102.478" stroke="#2A1E17" stroke-width="0.7222" stroke-miterlimit="10" stroke-linecap="round" stroke-linejoin="round"/>
<path d="M48.3073 110.57L53.0308 106.015" stroke="#2A1E17" stroke-width="0.7222" stroke-miterlimit="10" stroke-linecap="round" stroke-linejoin="round"/>
<path d="M59.283 105.52L63.7862 110.639" stroke="#2A1E17" stroke-width="0.7222" stroke-miterlimit="10" stroke-linecap="round" stroke-linejoin="round"/>
<path d="M32.5086 53.7926C32.5086 53.7926 -13.5562 82.0344 14.4545 83.507C34.6294 84.5668 76.0395 69.7165 102.59 73.9555C129.141 78.1945 30.3879 175.83 81.3552 175.83C132.323 175.83 198.466 83.3832 209.827 112.162C209.827 112.162 175.165 238.08 215.597 217.435C256.03 196.791 374.696 27.2024 424.92 50.4344C468.217 70.4597 389.445 253.646 463.548 167.159" stroke="#2A1E17" stroke-width="0.7222" stroke-miterlimit="10" stroke-linecap="round" stroke-linejoin="round"/>
<path d="M4.99367 82.7502C6.70494 82.7502 8.0922 81.3638 8.0922 79.6536C8.0922 77.9433 6.70494 76.5569 4.99367 76.5569C3.2824 76.5569 1.89514 77.9433 1.89514 79.6536C1.89514 81.3638 3.2824 82.7502 4.99367 82.7502Z" fill="#2A1E17"/>
<path d="M107.286 79.9424C108.998 79.9424 110.385 78.556 110.385 76.8457C110.385 75.1355 108.998 73.749 107.286 73.749C105.575 73.749 104.188 75.1355 104.188 76.8457C104.188 78.556 105.575 79.9424 107.286 79.9424Z" fill="#2A1E17"/>
<path d="M85.335 177.922C87.0463 177.922 88.4335 176.535 88.4335 174.825C88.4335 173.115 87.0463 171.728 85.335 171.728C83.6237 171.728 82.2365 173.115 82.2365 174.825C82.2365 176.535 83.6237 177.922 85.335 177.922Z" fill="#2A1E17"/>
<path d="M425.416 54.4258C427.127 54.4258 428.514 53.0394 428.514 51.3291C428.514 49.6189 427.127 48.2324 425.416 48.2324C423.705 48.2324 422.317 49.6189 422.317 51.3291C422.317 53.0394 423.705 54.4258 425.416 54.4258Z" fill="#2A1E17"/>
<path d="M433.899 194.079C435.61 194.079 436.997 192.693 436.997 190.983C436.997 189.272 435.61 187.886 433.899 187.886C432.188 187.886 430.8 189.272 430.8 190.983C430.8 192.693 432.188 194.079 433.899 194.079Z" fill="#2A1E17"/>
<path d="M1 53.8613L10.0753 107.248" stroke="#2A1E17" stroke-width="0.7222" stroke-miterlimit="10" stroke-linecap="round" stroke-linejoin="round"/>
<path d="M53.9946 1L61.1006 1.01378V8.1843L53.9946 8.17057V1Z" stroke="#2A1E17" stroke-width="0.7222" stroke-miterlimit="10" stroke-linecap="round" stroke-linejoin="round"/>
<path d="M46.8225 14.9812H53.9973V7.81069L46.8225 7.81069V14.9812Z" fill="#FF3D43"/>
<path d="M157.671 36.6642H117.363C115.779 36.6642 114.499 35.3843 114.499 33.8015V20.7816C114.499 19.1989 115.779 17.9189 117.363 17.9189H157.671C159.255 17.9189 160.536 19.1989 160.536 20.7816V33.8015C160.536 35.3843 159.241 36.6642 157.671 36.6642Z" fill="#FFE179"/>
<path d="M142.096 29.3423H154.628" stroke="#2A1E17" stroke-width="0.7222" stroke-miterlimit="10" stroke-linecap="round" stroke-linejoin="round"/>
<path d="M142.096 25.6396H154.628" stroke="#2A1E17" stroke-width="0.7222" stroke-miterlimit="10" stroke-linecap="round" stroke-linejoin="round"/>
<path d="M135.996 29.9614H123.835C122.458 29.9614 121.329 28.8466 121.329 27.4565C121.329 26.0802 122.445 24.9517 123.835 24.9517H135.996C137.373 24.9517 138.502 26.0665 138.502 27.4565C138.502 28.8466 137.373 29.9614 135.996 29.9614Z" fill="#F9F8F6"/>
<path d="M168.076 52.4622L171.202 55.9305L174.645 53.288L177.674 56.9903" stroke="#2A1E17" stroke-width="0.7222" stroke-miterlimit="10" stroke-linecap="round" stroke-linejoin="round"/>
<path d="M415.093 70.646C416.417 70.646 417.489 69.5738 417.489 68.2512C417.489 66.9286 416.417 65.8564 415.093 65.8564C413.77 65.8564 412.697 66.9286 412.697 68.2512C412.697 69.5738 413.77 70.646 415.093 70.646Z" stroke="#2A1E17" stroke-width="0.7222" stroke-miterlimit="10" stroke-linecap="round" stroke-linejoin="round"/>
<path d="M69.0159 218.647H63.7415V207.967H68.7543" fill="#7CA4FF"/>
<path d="M70.9852 201.209C72.1006 201.209 73.0096 202.021 73.0096 203.025V207.03H79.9503C81.6579 207.03 83.0488 208.269 83.0488 209.811V215.88C83.0488 217.408 81.6579 218.66 79.9503 218.66H69.0159L68.9608 203.039C68.9608 202.021 69.8697 201.209 70.9852 201.209Z" stroke="#2A1E17" stroke-width="0.7222" stroke-miterlimit="10" stroke-linecap="round" stroke-linejoin="round"/>
<path d="M381.909 36.0298H346.103C344.726 36.0298 343.611 34.915 343.611 33.5387V10.5407C343.611 9.16436 344.726 8.04956 346.103 8.04956H381.922C383.299 8.04956 384.415 9.16436 384.415 10.5407V33.5387C384.401 34.915 383.286 36.0298 381.909 36.0298Z" fill="#F9F9F8"/>
<path d="M350.014 32.9471H365.741C366.264 32.9471 366.526 32.3003 366.154 31.9287L358.966 24.9645C358.36 24.3865 357.41 24.3865 356.804 24.9645L349.615 31.9287C349.229 32.314 349.491 32.9471 350.014 32.9471Z" fill="#9FCA78"/>
<path d="M364.681 28.5154L368.854 32.6856H380.945V25.2122C380.945 25.0608 380.876 24.9095 380.766 24.7994L374.803 18.8399C374.169 18.2068 373.15 18.2344 372.558 18.895C370.437 21.221 365.879 26.2307 364.64 27.7446C364.447 27.9648 364.461 28.2952 364.681 28.5154Z" fill="#9FCA78"/>
<path d="M356.322 20.0788C358.018 20.0788 359.393 18.7046 359.393 17.0096C359.393 15.3146 358.018 13.9404 356.322 13.9404C354.626 13.9404 353.251 15.3146 353.251 17.0096C353.251 18.7046 354.626 20.0788 356.322 20.0788Z" fill="#FFE179"/>
<path d="M163.097 318.184H266.617" stroke="#2A1E17" stroke-width="0.7222" stroke-miterlimit="10" stroke-linecap="round" stroke-linejoin="round"/>
<path d="M162.859 318.232C154.622 318.232 150.26 299.542 155.993 299.923C161.726 300.304 168.199 318.232 162.859 318.232Z" fill="#AFCD5C"/>
<path d="M170.702 318.017C170.702 318.017 171.25 303.413 160.701 296.528C146.327 287.141 142.703 282.531 152.203 279.541C161.703 276.539 173.014 282.221 176.709 295.039C178.986 302.96 175.207 318.029 175.207 318.029" stroke="#2A1E17" stroke-width="0.7222" stroke-miterlimit="10" stroke-linecap="round" stroke-linejoin="round"/>
<path d="M152.203 279.529C152.203 279.529 164.289 284.818 168.377 291.704C175.446 303.628 173.455 317.982 173.455 317.982" stroke="#2A1E17" stroke-width="0.7222" stroke-miterlimit="10" stroke-linecap="round" stroke-linejoin="round"/>
<path d="M168.938 292.68L169.546 284.151" stroke="#2A1E17" stroke-width="0.7222" stroke-miterlimit="10" stroke-linecap="round" stroke-linejoin="round"/>
<path d="M170.761 295.432L171.977 287.046" stroke="#2A1E17" stroke-width="0.7222" stroke-miterlimit="10" stroke-linecap="round" stroke-linejoin="round"/>
<path d="M146.994 283.853H159.176" stroke="#2A1E17" stroke-width="0.7222" stroke-miterlimit="10" stroke-linecap="round" stroke-linejoin="round"/>
<path d="M167.412 302.889L173.205 306.236" stroke="#2A1E17" stroke-width="0.7222" stroke-miterlimit="10" stroke-linecap="round" stroke-linejoin="round"/>
<path d="M177.996 317.946C177.996 317.946 178.616 313.431 182.18 311.823" stroke="#2A1E17" stroke-width="0.7222" stroke-miterlimit="10" stroke-linecap="round" stroke-linejoin="round"/>
<path d="M156.482 302.532L162.918 317.887" stroke="#2A1E17" stroke-width="0.7222" stroke-miterlimit="10" stroke-linecap="round" stroke-linejoin="round"/>
<path d="M159.195 107.642H201.268C204.843 107.642 207.896 110.227 208.485 113.752L225.704 216.69H172.596L150.523 119.574C149.143 113.503 153.402 107.642 159.195 107.642Z" fill="#BBE0F8"/>
<path d="M208.358 222.495C196.227 222.495 185.473 214.513 181.801 202.735C172.492 172.878 158.436 113.651 178.872 113.651C185.233 113.651 190.182 113.503 194.035 113.272C202.014 112.792 209.107 118.298 210.674 126.135L229.96 222.492H208.358V222.495Z" fill="#72C4F4"/>
<path d="M216.648 237.025H212.306V312.775H216.648V237.025Z" fill="#007CF4"/>
<path d="M220.507 218.447H209.06V243.878H220.507V218.447Z" fill="#BBE0F8"/>
<path d="M251.263 224.207H177.486C174.37 224.207 171.844 221.68 171.844 218.565C171.844 215.831 174.059 213.616 176.793 213.616H251.263V224.207Z" fill="#007CF4"/>
<path d="M252.3 317.653H176.653V315.796C176.653 311.436 180.187 307.903 184.546 307.903H244.404C248.764 307.903 252.297 311.436 252.297 315.796V317.653H252.3Z" fill="#BBE0F8"/>
<path d="M228.015 72.8304C228.015 72.8304 214.687 64.1646 204.733 82.5595C194.779 100.954 182.977 99.4824 177.945 106.993C171.293 116.924 177.927 129.392 217.409 130.405C251.693 131.288 257.282 72.8304 228.015 72.8304Z" fill="black"/>
<path d="M233.509 149.282L282.998 167.591V174.273L244.473 169.528C238.212 168.758 233.509 163.439 233.509 157.131V149.282Z" fill="#FBCAC4"/>
<path d="M195.869 167.005L194.663 188.394H235.851L238.143 167.005H195.869Z" fill="#FBCAC4"/>
<path d="M251.403 272.078L250.603 281.778C250.603 281.778 243.738 283.836 246.315 288.03C248.891 292.224 251.835 293.716 251.658 298.609C251.48 303.501 252.404 309.069 255.742 311.717C255.742 311.717 254.018 315.849 259.367 317.652L268.065 272.594L251.403 272.078Z" fill="#FBCAC4"/>
<path d="M251.776 210.838L242.844 276.72H269.51C269.51 276.72 302.681 199.66 279.266 182.749H254.551L251.776 210.838Z" fill="#F9F8F6"/>
<path d="M212.549 110.586C212.549 110.586 182.778 109.303 176.126 136.02L192.762 142.794V168.984C192.762 170.053 193.63 170.921 194.699 170.921L238.828 170.95C239.758 170.95 240.557 170.29 240.732 169.375L245.133 134.916C246.324 125.595 240.845 116.622 231.927 113.654C227.132 112.061 220.824 110.852 212.549 110.586Z" fill="#F54552"/>
<path d="M192.543 143.46C192.516 143.46 192.49 143.457 192.463 143.448C192.306 143.404 192.214 143.241 192.256 143.081L196.583 127.604C196.627 127.447 196.79 127.352 196.95 127.396C197.107 127.441 197.199 127.604 197.157 127.763L192.83 143.241C192.792 143.374 192.673 143.46 192.543 143.46Z" fill="#1F191A"/>
<path d="M178.715 137.075L172.353 157.543L174.391 158.088C180.916 159.835 187.671 156.21 189.824 149.81L192.253 142.584L178.715 137.075Z" fill="#FBCAC4"/>
<path d="M228.32 144.982C225.788 144.42 219.953 147.728 219.953 147.728L213.63 148.797L213.627 148.791L177.293 153.758C170.126 154.738 169.981 165.101 177.128 166.22C188.764 168.045 211.388 157.016 214.895 155.259C218.573 158.766 223.572 154.818 223.572 154.818L225.157 155.176L225.666 155.917C226.38 156.959 227.944 156.974 228.634 155.917C228.823 155.627 228.927 155.407 228.927 155.407C231.095 155.236 230.674 153.068 230.674 153.068C232.937 152.757 232.268 150.805 232.268 150.805C235.831 149.62 230.852 145.545 228.32 144.982Z" fill="#FBCAC4"/>
<path d="M177.293 153.758L188.52 152.214M214.895 155.259C218.573 158.766 223.572 154.818 223.572 154.818" stroke="black" stroke-width="0.75" stroke-linecap="round" stroke-linejoin="round"/>
<path d="M232.265 151.107C232.203 151.107 232.143 151.089 232.09 151.051L228.299 148.359C228.163 148.261 228.13 148.071 228.228 147.935C228.326 147.799 228.515 147.766 228.651 147.864L232.442 150.556C232.579 150.654 232.611 150.844 232.513 150.98C232.454 151.063 232.359 151.107 232.265 151.107Z" fill="#1F191A"/>
<path d="M230.674 153.37C230.603 153.37 230.529 153.343 230.473 153.293L226.718 149.952C226.593 149.84 226.581 149.65 226.691 149.523C226.803 149.398 226.993 149.387 227.12 149.496L230.876 152.837C231 152.949 231.012 153.139 230.902 153.266C230.84 153.334 230.757 153.37 230.674 153.37Z" fill="#1F191A"/>
<path d="M228.927 155.71C228.85 155.71 228.776 155.68 228.717 155.624L225.249 152.253C225.127 152.138 225.127 151.945 225.243 151.824C225.358 151.705 225.551 151.702 225.672 151.818L229.14 155.188C229.262 155.304 229.262 155.496 229.146 155.618C229.084 155.677 229.007 155.71 228.927 155.71Z" fill="#1F191A"/>
<path d="M218.62 118.612C214.616 117.889 212.217 113.411 213.494 109.045L218.481 98.9285L227.378 100.667L226.759 111.436C226.433 115.976 222.625 119.334 218.62 118.612Z" fill="#FBCAC4"/>
<path d="M224.407 92.6289C226.179 91.8293 227.582 90.2685 228.61 88.7403C226.01 90.0612 222.133 91.2281 216.888 90.923L216.672 91.8293C216.58 91.8145 216.491 91.7908 216.396 91.7849C214.702 91.6871 213.251 92.9814 213.153 94.6754C213.073 96.0911 213.968 97.3232 215.25 97.7526L214.986 98.8484C213.905 103.344 216.675 107.864 221.17 108.945C225.666 110.026 230.186 107.257 231.267 102.761L233.215 94.6458C233.719 92.546 233.375 90.4462 232.419 88.6899C229.724 91.8323 224.407 92.6289 224.407 92.6289Z" fill="#FBCAC4"/>
<path d="M298.28 275.683L303.996 286.519L323.8 286.194C323.8 286.194 329.507 286.913 325.888 290.153L299.841 303.892C299.841 303.892 294.128 307.704 290.959 297.658L283.193 283.644L298.28 275.683Z" fill="#FBCAC4"/>
<path d="M191.874 182.749H258.123C258.123 182.749 274.471 186.682 304.147 279.708L282.968 288.51L238.339 215.7C238.339 215.7 174.373 233.678 191.874 182.749Z" fill="#F9F8F6"/>
<path d="M191.552 182.879C174.051 233.808 238.017 215.831 238.017 215.831L282.646 288.64L303.825 279.838" stroke="black" stroke-width="0.75" stroke-linecap="round"/>
<path d="M271.206 272.41C271.038 272.41 270.874 272.326 270.78 272.17L248.515 235.807C248.372 235.573 248.443 235.266 248.679 235.119C248.912 234.976 249.22 235.051 249.366 235.284L271.631 271.648C271.774 271.881 271.703 272.189 271.467 272.335C271.383 272.388 271.293 272.41 271.206 272.41Z" fill="#E5E5E5"/>
<path d="M284.692 226.309C284.502 226.309 284.325 226.193 284.25 226.007C284.194 225.862 278.416 211.273 268.699 195.17C268.563 194.945 268.637 194.652 268.859 194.518C269.084 194.382 269.377 194.456 269.51 194.678C279.272 210.852 285.077 225.512 285.133 225.66C285.228 225.903 285.109 226.181 284.864 226.276C284.81 226.297 284.751 226.309 284.692 226.309Z" fill="#E5E5E5"/>
<path d="M156.091 116.614L177.24 210.021" stroke="black" stroke-width="0.75" stroke-linecap="round"/>
<path d="M134.948 187.918L106.579 313.377C106.214 314.989 107.44 316.522 109.092 316.522C110.254 316.522 111.272 315.746 111.578 314.626L146.264 187.918H134.948Z" fill="#BBE0F8"/>
<path d="M146.264 187.917L143.613 197.602H132.759L134.948 187.917H146.264Z" fill="#72C4F4"/>
<path d="M161.839 187.918L133.47 313.377C133.106 314.989 134.331 316.522 135.984 316.522C137.145 316.522 138.163 315.746 138.47 314.626L173.156 187.918H161.839Z" fill="#BBE0F8"/>
<path d="M173.156 187.917L170.505 197.602H159.651L161.839 187.917H173.156Z" fill="#72C4F4"/>
<path d="M361.526 189.38L389.895 314.836C390.26 316.448 389.034 317.981 387.381 317.981C386.22 317.981 385.202 317.205 384.896 316.084L350.21 189.38H361.526Z" fill="#BBE0F8"/>
<path d="M350.21 189.38L352.86 199.062H363.715L361.526 189.38H350.21Z" fill="#72C4F4"/>
<path d="M334.634 189.38L363.003 314.836C363.368 316.448 362.142 317.981 360.49 317.981C359.328 317.981 358.31 317.205 358.004 316.084L323.318 189.38H334.634Z" fill="#BBE0F8"/>
<path d="M323.318 189.38L325.968 199.062H336.826L334.634 189.38H323.318Z" fill="#72C4F4"/>
<path d="M372.798 182.607H125.307V193.225H372.798V182.607Z" fill="#BBE0F8"/>
<path d="M372.798 182.607H125.307V187.917H372.798V182.607Z" fill="#72C4F4"/>
<path d="M379.962 175.606H118.143V184.251H379.962V175.606Z" fill="#BBE0F8"/>
<path d="M379.843 175.83V184.475H118.024" stroke="black" stroke-width="0.75" stroke-linecap="round"/>
<path d="M312.209 156.977H244.44C240.877 156.977 238.152 153.802 238.694 150.278L244.718 111.116C245.154 108.278 247.594 106.185 250.464 106.185H318.233C321.795 106.185 324.52 109.359 323.978 112.884L317.954 152.046C317.516 154.883 315.075 156.977 312.209 156.977Z" fill="#BBE0F8"/>
<path d="M244.386 156.831H312.155C315.022 156.831 317.462 154.738 317.9 151.9L323.925 112.738C324.466 109.214 321.742 106.039 318.179 106.039" stroke="black" stroke-width="0.75" stroke-linecap="round" stroke-linejoin="round"/>
<path d="M272.519 135.236L278.62 172.517H268.785C267.117 172.517 265.764 173.867 265.764 175.538V176.474H293.426C295.265 176.474 296.675 174.845 296.414 173.023L290.858 134.318C290.645 132.831 289.371 131.726 287.87 131.726H275.499C273.636 131.729 272.217 133.396 272.519 135.236Z" fill="#72C4F4"/>
<path d="M242.485 149.132C242.462 149.132 242.438 149.129 242.414 149.126C242.157 149.087 241.982 148.847 242.02 148.59L247.476 113.121C247.514 112.866 247.754 112.688 248.012 112.727C248.269 112.765 248.444 113.005 248.406 113.263L242.95 148.732C242.912 148.966 242.713 149.132 242.485 149.132Z" fill="#2A1E17"/>
<path d="M110.269 41.5789L121.245 34.1331L120.349 47.7309L116.507 42.4322L110.269 41.5789Z" fill="#2A1E17"/>
</svg>
